<svg xmlns="http://www.w3.org/2000/svg" version="1.1" xmlns:xlink="http://www.w3.org/1999/xlink" width="512" height="512" x="0" y="0" viewBox="0 0 512 512" style="enable-background:new 0 0 512 512" xml:space="preserve" class=""><g><path fill="#ffffff" d="M175.237 179.341h166.699v286.07H175.237zM475.987 285.21v180.2h-88.299V257.004h60.134c15.539 0 28.165 12.626 28.165 28.206z" opacity="1" data-original="#ffffff"></path><g fill="#2095ef"><path d="M451.051 335.23v-45.698a6.454 6.454 0 0 0-6.454-6.454H416.36a6.454 6.454 0 0 0-6.454 6.454v45.698a6.454 6.454 0 0 0 6.454 6.454h28.237a6.454 6.454 0 0 0 6.454-6.454zM320.455 349.825v-45.698a6.454 6.454 0 0 0-6.454-6.454h-28.237a6.454 6.454 0 0 0-6.454 6.454v45.698a6.454 6.454 0 0 0 6.454 6.454h28.237a6.454 6.454 0 0 0 6.454-6.454zM237.862 349.825v-45.698a6.454 6.454 0 0 0-6.454-6.454h-28.237a6.454 6.454 0 0 0-6.454 6.454v45.698a6.454 6.454 0 0 0 6.454 6.454h28.237a6.455 6.455 0 0 0 6.454-6.454zM451.051 432.893v-45.698a6.454 6.454 0 0 0-6.454-6.454H416.36a6.454 6.454 0 0 0-6.454 6.454v45.698a6.454 6.454 0 0 0 6.454 6.454h28.237a6.453 6.453 0 0 0 6.454-6.454z" fill="#2095ef" opacity="1" data-original="#2095ef"></path></g><path fill="#55536e" d="M387.688 140.121V465.41H341.92V140.121c0-5.624 4.559-10.183 10.183-10.183h25.402c5.624 0 10.183 4.559 10.183 10.183z" opacity="1" data-original="#55536e"></path><path fill="#ffffff" d="M41.169 285.21v180.2h88.299V257.004H69.334c-15.539 0-28.165 12.626-28.165 28.206z" opacity="1" data-original="#ffffff"></path><path fill="#2095ef" d="M66.105 335.23v-45.698a6.454 6.454 0 0 1 6.454-6.454h28.237a6.454 6.454 0 0 1 6.454 6.454v45.698a6.454 6.454 0 0 1-6.454 6.454H72.559a6.455 6.455 0 0 1-6.454-6.454zM66.105 432.893v-45.698a6.454 6.454 0 0 1 6.454-6.454h28.237a6.454 6.454 0 0 1 6.454 6.454v45.698a6.454 6.454 0 0 1-6.454 6.454H72.559a6.454 6.454 0 0 1-6.454-6.454z" opacity="1" data-original="#2095ef"></path><path fill="#55536e" d="M129.468 140.121V465.41h45.768V140.121c0-5.624-4.559-10.183-10.183-10.183h-25.402c-5.623 0-10.183 4.559-10.183 10.183z" opacity="1" data-original="#55536e"></path><path fill="#ffc829" d="M211.81 410.045h93.552v55.366H211.81z" opacity="1" data-original="#ffc829"></path><path fill="#55536e" d="M209.998 387.779h97.177c6.148 0 11.133 4.984 11.133 11.133 0 6.148-4.984 11.133-11.133 11.133h-97.177c-6.148 0-11.133-4.984-11.133-11.133 0-6.149 4.984-11.133 11.133-11.133z" opacity="1" data-original="#55536e"></path><path fill="#ffc829" d="M280.764 250.544c0 12.268-9.933 22.155-22.201 22.155-12.222 0-22.155-9.887-22.155-22.155 0-12.222 9.933-22.155 22.155-22.155 12.268 0 22.201 9.933 22.201 22.155z" opacity="1" data-original="#ffc829"></path><path fill="#f88623" d="M316.087 104.985c0 31.76-57.51 109.292-57.51 109.292s-57.491-77.531-57.491-109.292c0-31.742 25.75-57.491 57.491-57.491 31.76 0 57.51 25.75 57.51 57.491z" opacity="1" data-original="#f88623"></path><path fill="#ff5d00" d="M316.087 104.985c0 31.76-57.51 71.739-57.51 71.739s-57.491-39.979-57.491-71.739c0-31.742 25.75-57.491 57.491-57.491 31.76 0 57.51 25.75 57.51 57.491z" opacity="1" data-original="#ff5d00"></path><path fill="#ffffff" d="M287.628 104.99c0 16.041-13.006 29.047-29.047 29.047-16.032 0-29.038-13.006-29.038-29.047 0-16.032 13.006-29.038 29.038-29.038 16.042.001 29.047 13.006 29.047 29.038z" opacity="1" data-original="#ffffff"></path><path d="M501.39 460.554h-20.548V285.21c0-18.229-14.815-33.063-33.02-33.063h-55.276V140.121c0-8.294-6.748-15.038-15.042-15.038h-25.399c-8.294 0-15.042 6.743-15.042 15.038v34.362h-45.838c14.784-24.014 29.719-52.476 29.719-69.498 0-34.376-27.979-62.346-62.365-62.346-34.376 0-62.346 27.97-62.346 62.346 0 17.022 14.93 45.483 29.708 69.498h-45.846v-34.362c0-8.294-6.746-15.038-15.04-15.038h-25.402c-8.294 0-15.04 6.743-15.04 15.038v112.026H69.334c-18.208 0-33.02 14.834-33.02 33.063v175.344H15.782c-2.682 0-4.856 2.172-4.856 4.856s2.174 4.856 4.856 4.856H501.39c2.684 0 4.856-2.172 4.856-4.856s-2.172-4.856-4.856-4.856zM352.104 134.796h25.399c2.94 0 5.33 2.39 5.33 5.326v320.433h-36.041l-.019-320.433a5.335 5.335 0 0 1 5.331-5.326zm-125.673 21.427c14.153 13.802 28.193 23.671 29.373 24.492a4.867 4.867 0 0 0 5.548 0c1.18-.821 15.226-10.69 29.383-24.493-10.792 18.865-23.528 37.773-32.157 49.807-8.625-12.033-21.358-30.941-32.147-49.806zm32.147-103.871c29.032 0 52.653 23.612 52.653 52.634 0 22.62-35.704 53.393-52.653 65.775-16.944-12.382-52.634-43.154-52.634-65.775 0-29.023 23.611-52.634 52.634-52.634zM46.026 285.21c0-12.875 10.457-23.351 23.308-23.351h55.278v198.695H46.026zm88.298-145.089a5.334 5.334 0 0 1 5.328-5.326h25.402a5.333 5.333 0 0 1 5.328 5.326v320.433h-36.058V140.121zm45.77 44.074h51.955c11.537 17.945 21.643 31.646 22.626 32.973a4.873 4.873 0 0 0 3.903 1.963c1.536 0 2.983-.73 3.898-1.963.985-1.327 11.096-15.028 22.637-32.973h51.949v276.359h-26.846v-45.961c7.364-1.427 12.946-7.909 12.946-15.683 0-8.816-7.17-15.986-15.986-15.986h-97.178c-8.816 0-15.991 7.17-15.991 15.986 0 7.773 5.583 14.255 12.946 15.683v45.961h-26.86V184.195zm29.904 220.994c-3.462 0-6.279-2.817-6.279-6.279s2.817-6.274 6.279-6.274h97.178c3.462 0 6.274 2.812 6.274 6.274s-2.812 6.279-6.274 6.279h-97.178zm6.668 55.365V414.9h83.838v45.654zm175.88 0V261.859h55.276c12.851 0 23.308 10.476 23.308 23.351v175.344z" fill="#000000" opacity="1" data-original="#000000"></path><path d="M444.597 278.225h-28.235c-6.236 0-11.31 5.069-11.31 11.305v45.701c0 6.236 5.074 11.31 11.31 11.31h28.235c6.236 0 11.31-5.074 11.31-11.31V289.53c0-6.236-5.074-11.305-11.31-11.305zm1.598 57.006c0 .882-.716 1.598-1.598 1.598h-28.235a1.599 1.599 0 0 1-1.598-1.598V289.53c0-.877.716-1.593 1.598-1.593h28.235c.882 0 1.598.716 1.598 1.593zM274.455 304.127v45.696c0 6.236 5.074 11.31 11.31 11.31H314c6.236 0 11.31-5.074 11.31-11.31v-45.696c0-6.236-5.074-11.31-11.31-11.31h-28.235c-6.236-.001-11.31 5.074-11.31 11.31zm9.712 0c0-.882.716-1.598 1.598-1.598H314c.882 0 1.598.716 1.598 1.598v45.696c0 .882-.716 1.598-1.598 1.598h-28.235a1.599 1.599 0 0 1-1.598-1.598zM203.17 361.133h28.24c6.236 0 11.31-5.074 11.31-11.31v-45.696c0-6.236-5.074-11.31-11.31-11.31h-28.24c-6.236 0-11.31 5.074-11.31 11.31v45.696c-.001 6.236 5.074 11.31 11.31 11.31zm-1.598-57.006c0-.882.716-1.598 1.598-1.598h28.24c.882 0 1.598.716 1.598 1.598v45.696c0 .882-.716 1.598-1.598 1.598h-28.24a1.599 1.599 0 0 1-1.598-1.598zM444.597 375.886h-28.235c-6.236 0-11.31 5.074-11.31 11.31v45.696c0 6.236 5.074 11.31 11.31 11.31h28.235c6.236 0 11.31-5.074 11.31-11.31v-45.696c0-6.236-5.074-11.31-11.31-11.31zm1.598 57.007c0 .882-.716 1.598-1.598 1.598h-28.235a1.599 1.599 0 0 1-1.598-1.598v-45.696c0-.882.716-1.598 1.598-1.598h28.235c.882 0 1.598.716 1.598 1.598zM100.797 278.225H72.559c-6.236 0-11.31 5.069-11.31 11.305v45.701c0 6.236 5.074 11.31 11.31 11.31h28.238c6.236 0 11.31-5.074 11.31-11.31V289.53c0-6.236-5.074-11.305-11.31-11.305zm1.598 57.006c0 .882-.716 1.598-1.598 1.598H72.559a1.599 1.599 0 0 1-1.598-1.598V289.53c0-.877.716-1.593 1.598-1.593h28.238c.882 0 1.598.716 1.598 1.593zM100.797 375.886H72.559c-6.236 0-11.31 5.074-11.31 11.31v45.696c0 6.236 5.074 11.31 11.31 11.31h28.238c6.236 0 11.31-5.074 11.31-11.31v-45.696c0-6.236-5.074-11.31-11.31-11.31zm1.598 57.007c0 .882-.716 1.598-1.598 1.598H72.559a1.599 1.599 0 0 1-1.598-1.598v-45.696c0-.882.716-1.598 1.598-1.598h28.238c.882 0 1.598.716 1.598 1.598zM258.564 277.556c14.919 0 27.054-12.116 27.054-27.012s-12.135-27.012-27.054-27.012c-14.895 0-27.012 12.116-27.012 27.012s12.116 27.012 27.012 27.012zm0-44.312c9.56 0 17.342 7.758 17.342 17.3 0 9.541-7.782 17.3-17.342 17.3-9.541 0-17.3-7.758-17.3-17.3 0-9.541 7.758-17.3 17.3-17.3zM258.583 138.893c18.694 0 33.902-15.208 33.902-33.902 0-18.689-15.208-33.893-33.902-33.893-18.689 0-33.893 15.204-33.893 33.893 0 18.694 15.204 33.902 33.893 33.902zm0-58.083c13.34 0 24.19 10.845 24.19 24.181 0 13.34-10.85 24.19-24.19 24.19-13.335 0-24.181-10.85-24.181-24.19 0-13.336 10.846-24.181 24.181-24.181z" fill="#000000" opacity="1" data-original="#000000"></path></g></svg>